<?xml version="1.0" encoding="UTF-8"?>
<svg xmlns="http://www.w3.org/2000/svg" xmlns:xlink="http://www.w3.org/1999/xlink" width="425.1969pt" height="283.4646pt" viewBox="0 0 425.1969 283.4646">
<path fill-rule="nonzero" fill="rgb(13.725281%, 12.156677%, 12.548828%)" fill-opacity="1" d="M 107.101562 232.421875 C 109.132812 229.148438 111.214844 225.921875 113.378906 222.695312 C 115.546875 219.507812 117.539062 216.371094 119.394531 213.230469 L 119.304688 213.140625 C 118.066406 214.421875 116.695312 215.792969 115.238281 217.210938 C 113.777344 218.625 112.054688 220.128906 110.109375 221.675781 C 108.957031 222.605469 108.160156 223.222656 107.71875 223.535156 C 107.234375 223.84375 106.921875 224.019531 106.703125 224.019531 C 106.570312 224.019531 106.527344 223.933594 106.527344 223.800781 C 106.527344 223.710938 106.613281 223.578125 106.789062 223.445312 C 106.921875 223.3125 107.234375 223.046875 107.71875 222.695312 C 108.160156 222.382812 108.78125 221.898438 109.621094 221.234375 C 110.460938 220.613281 111.523438 219.730469 112.804688 218.625 C 114.175781 217.476562 115.28125 216.457031 116.210938 215.574219 C 117.140625 214.6875 117.890625 213.9375 118.464844 213.320312 C 119.039062 212.742188 119.4375 212.300781 119.75 211.992188 C 120.058594 211.683594 120.234375 211.550781 120.367188 211.550781 C 120.5 211.550781 120.589844 211.683594 120.589844 211.992188 C 120.589844 212.125 120.457031 212.566406 120.148438 213.230469 C 119.835938 213.894531 119.484375 214.777344 118.996094 215.792969 C 118.511719 216.855469 117.933594 218.050781 117.273438 219.378906 C 116.609375 220.746094 115.902344 222.117188 115.148438 223.578125 C 114.398438 225.039062 113.601562 226.496094 112.804688 227.957031 C 112.007812 229.414062 111.214844 230.832031 110.460938 232.15625 C 109.886719 232.15625 109.3125 232.203125 108.78125 232.246094 C 108.207031 232.289062 107.675781 232.378906 107.101562 232.421875 "/>
<path fill-rule="nonzero" fill="rgb(13.725281%, 12.156677%, 12.548828%)" fill-opacity="1" d="M 124.304688 232.421875 C 126.335938 229.148438 128.417969 225.921875 130.582031 222.695312 C 132.75 219.507812 134.742188 216.371094 136.597656 213.230469 L 136.507812 213.140625 C 135.269531 214.421875 133.898438 215.792969 132.441406 217.210938 C 130.980469 218.625 129.257812 220.128906 127.3125 221.675781 C 126.160156 222.605469 125.363281 223.222656 124.921875 223.535156 C 124.4375 223.84375 124.125 224.019531 123.90625 224.019531 C 123.773438 224.019531 123.726562 223.933594 123.726562 223.800781 C 123.726562 223.710938 123.816406 223.578125 123.992188 223.445312 C 124.125 223.3125 124.4375 223.046875 124.921875 222.695312 C 125.363281 222.382812 125.984375 221.898438 126.824219 221.234375 C 127.664062 220.613281 128.726562 219.730469 130.007812 218.625 C 131.378906 217.476562 132.484375 216.457031 133.414062 215.574219 C 134.34375 214.6875 135.09375 213.9375 135.667969 213.320312 C 136.242188 212.742188 136.640625 212.300781 136.953125 211.992188 C 137.261719 211.683594 137.4375 211.550781 137.570312 211.550781 C 137.703125 211.550781 137.792969 211.683594 137.792969 211.992188 C 137.792969 212.125 137.660156 212.566406 137.347656 213.230469 C 137.039062 213.894531 136.6875 214.777344 136.199219 215.792969 C 135.714844 216.855469 135.136719 218.050781 134.476562 219.378906 C 133.8125 220.746094 133.105469 222.117188 132.351562 223.578125 C 131.601562 225.039062 130.804688 226.496094 130.007812 227.957031 C 129.210938 229.414062 128.417969 230.832031 127.664062 232.15625 C 127.089844 232.15625 126.515625 232.203125 125.984375 232.246094 C 125.410156 232.289062 124.878906 232.378906 124.304688 232.421875 "/>
<path fill-rule="nonzero" fill="rgb(13.725281%, 12.156677%, 12.548828%)" fill-opacity="1" d="M 201.519531 218.359375 C 201.519531 219.113281 201.386719 219.953125 201.164062 220.835938 C 201.652344 220.527344 202.136719 220.21875 202.710938 219.953125 C 203.242188 219.730469 203.949219 219.421875 204.835938 219.113281 C 205.367188 218.183594 206.027344 217.121094 206.824219 215.925781 C 207.578125 214.734375 208.417969 213.539062 209.300781 212.34375 C 210.140625 211.152344 211.027344 209.957031 211.867188 208.761719 C 212.707031 207.613281 213.503906 206.597656 214.164062 205.667969 C 214.828125 204.738281 215.402344 203.988281 215.847656 203.367188 C 216.246094 202.792969 216.464844 202.4375 216.464844 202.351562 C 216.464844 202.21875 216.421875 202.085938 216.378906 201.953125 C 216.332031 201.863281 216.199219 201.820312 216.066406 201.820312 C 215.757812 201.820312 214.296875 203.015625 211.777344 205.445312 C 209.210938 207.878906 205.585938 211.460938 200.941406 216.191406 C 201.339844 216.855469 201.519531 217.609375 201.519531 218.359375 Z M 204.347656 229.328125 C 204.347656 230.210938 204.523438 230.917969 204.835938 231.40625 C 205.144531 231.890625 205.71875 232.15625 206.558594 232.15625 C 207.3125 232.15625 208.0625 231.9375 208.726562 231.496094 C 209.390625 231.097656 210.007812 230.519531 210.496094 229.859375 C 210.980469 229.195312 211.378906 228.398438 211.691406 227.515625 C 212 226.628906 212.132812 225.746094 212.175781 224.859375 C 212.132812 223.3125 211.777344 221.984375 211.070312 220.96875 C 210.363281 219.953125 209.390625 219.464844 208.105469 219.464844 C 207.972656 219.464844 207.886719 219.464844 207.796875 219.464844 C 207.664062 219.507812 207.53125 219.507812 207.398438 219.554688 C 207.089844 220.21875 206.734375 220.96875 206.382812 221.808594 C 206.027344 222.648438 205.71875 223.488281 205.410156 224.328125 C 205.101562 225.171875 204.835938 226.054688 204.65625 226.894531 C 204.4375 227.78125 204.347656 228.574219 204.347656 229.328125 Z M 196.300781 226.542969 C 196.300781 226.144531 196.476562 225.65625 196.785156 225.171875 C 197.09375 224.683594 197.449219 224.152344 197.890625 223.667969 C 198.289062 223.179688 198.730469 222.738281 199.21875 222.339844 C 199.660156 221.941406 200.058594 221.589844 200.367188 221.324219 C 200.5 220.746094 200.542969 220.085938 200.542969 219.378906 C 200.542969 219.066406 200.5 218.667969 200.457031 218.226562 C 200.367188 217.785156 200.191406 217.429688 199.96875 217.164062 C 198.332031 218.800781 196.652344 220.570312 194.882812 222.382812 C 193.070312 224.199219 191.167969 225.878906 189.179688 227.425781 C 187.1875 228.972656 185.023438 230.210938 182.765625 231.183594 C 180.511719 232.203125 178.035156 232.6875 175.425781 232.6875 C 173.878906 232.6875 172.375 232.46875 170.960938 231.9375 C 169.5 231.449219 168.261719 230.785156 167.199219 229.859375 C 166.09375 228.972656 165.253906 227.867188 164.636719 226.585938 C 163.972656 225.304688 163.664062 223.800781 163.664062 222.164062 C 163.664062 220.527344 163.972656 219.023438 164.636719 217.609375 C 165.300781 216.238281 166.183594 215 167.289062 213.9375 C 168.394531 212.921875 169.722656 212.078125 171.226562 211.460938 C 172.683594 210.886719 174.277344 210.578125 175.957031 210.578125 C 177.769531 210.578125 179.316406 210.886719 180.601562 211.503906 C 181.882812 212.167969 182.945312 212.921875 183.785156 213.804688 C 184.582031 214.6875 185.15625 215.574219 185.554688 216.503906 C 185.949219 217.429688 186.128906 218.136719 186.128906 218.714844 C 186.128906 219.199219 185.996094 219.597656 185.730469 219.863281 C 185.421875 220.171875 185.066406 220.304688 184.667969 220.304688 C 184.183594 220.304688 183.871094 220.128906 183.652344 219.773438 C 183.429688 219.421875 183.296875 219.023438 183.296875 218.625 C 183.296875 218.136719 183.34375 217.652344 183.472656 217.210938 C 183.605469 216.769531 183.652344 216.324219 183.652344 215.839844 C 183.652344 215.265625 183.472656 214.734375 183.164062 214.203125 C 182.855469 213.714844 182.414062 213.230469 181.839844 212.832031 C 181.261719 212.433594 180.554688 212.125 179.714844 211.902344 C 178.875 211.683594 177.992188 211.550781 177.019531 211.550781 C 175.601562 211.550781 174.230469 211.816406 172.90625 212.390625 C 171.535156 212.964844 170.339844 213.804688 169.324219 214.820312 C 168.261719 215.839844 167.421875 217.078125 166.800781 218.492188 C 166.183594 219.90625 165.875 221.457031 165.875 223.136719 C 165.875 224.460938 166.09375 225.65625 166.535156 226.761719 C 166.933594 227.867188 167.554688 228.839844 168.394531 229.636719 C 169.234375 230.433594 170.25 231.050781 171.488281 231.496094 C 172.683594 231.9375 174.097656 232.15625 175.648438 232.15625 C 177.945312 232.15625 180.15625 231.671875 182.238281 230.742188 C 184.316406 229.8125 186.347656 228.621094 188.339844 227.117188 C 190.328125 225.65625 192.230469 223.976562 194.089844 222.117188 C 195.945312 220.261719 197.804688 218.402344 199.617188 216.546875 C 199.128906 215.972656 198.6875 215.574219 198.246094 215.308594 C 197.804688 215.042969 197.226562 214.910156 196.566406 214.910156 C 195.855469 214.910156 195.28125 215.085938 194.839844 215.398438 C 194.355469 215.707031 194 216.058594 193.734375 216.457031 C 193.425781 216.855469 193.25 217.253906 193.117188 217.5625 C 192.984375 217.875 192.851562 218.050781 192.804688 218.050781 C 192.628906 218.050781 192.539062 217.960938 192.539062 217.828125 C 192.539062 217.742188 192.628906 217.519531 192.761719 217.121094 C 192.894531 216.722656 193.117188 216.324219 193.46875 215.882812 C 193.777344 215.441406 194.265625 215.042969 194.839844 214.6875 C 195.414062 214.378906 196.167969 214.203125 197.09375 214.203125 C 197.671875 214.203125 198.289062 214.335938 198.953125 214.554688 C 199.617188 214.777344 200.148438 215.132812 200.542969 215.617188 C 203.375 212.789062 205.761719 210.445312 207.664062 208.542969 C 209.566406 206.683594 211.113281 205.179688 212.308594 204.074219 C 213.503906 202.96875 214.429688 202.21875 215.09375 201.777344 C 215.757812 201.332031 216.246094 201.113281 216.554688 201.113281 C 217.304688 201.113281 217.703125 201.511719 217.703125 202.261719 C 217.703125 202.394531 217.484375 202.835938 217.085938 203.542969 C 216.6875 204.253906 216.15625 205.136719 215.492188 206.152344 C 214.828125 207.214844 214.121094 208.367188 213.371094 209.558594 C 212.574219 210.796875 211.820312 211.992188 211.113281 213.1875 C 210.363281 214.378906 209.699219 215.441406 209.125 216.457031 C 208.550781 217.476562 208.105469 218.226562 207.84375 218.800781 C 207.972656 218.800781 208.0625 218.800781 208.195312 218.757812 C 208.285156 218.757812 208.371094 218.757812 208.503906 218.757812 C 210.054688 218.757812 211.335938 219.246094 212.398438 220.21875 C 213.414062 221.191406 213.945312 222.472656 213.945312 224.109375 C 213.945312 225.082031 213.769531 226.054688 213.371094 227.070312 C 212.972656 228.089844 212.484375 229.015625 211.820312 229.859375 C 211.160156 230.699219 210.363281 231.363281 209.476562 231.890625 C 208.550781 232.421875 207.578125 232.6875 206.558594 232.6875 C 205.011719 232.6875 203.863281 232.15625 203.199219 231.140625 C 202.492188 230.125 202.136719 228.929688 202.136719 227.515625 C 202.136719 226.277344 202.402344 224.992188 202.890625 223.621094 C 203.375 222.25 203.863281 221.058594 204.4375 219.953125 C 204.214844 219.996094 203.90625 220.085938 203.550781 220.21875 C 203.152344 220.351562 202.800781 220.527344 202.445312 220.703125 C 202.09375 220.925781 201.785156 221.101562 201.472656 221.324219 C 201.164062 221.542969 200.941406 221.765625 200.808594 221.984375 C 200.589844 222.339844 200.367188 222.828125 200.148438 223.402344 C 199.925781 223.976562 199.660156 224.550781 199.351562 225.125 C 199.042969 225.699219 198.730469 226.230469 198.378906 226.628906 C 197.980469 227.070312 197.582031 227.292969 197.140625 227.292969 C 196.832031 227.292969 196.652344 227.203125 196.519531 227.027344 C 196.386719 226.851562 196.300781 226.671875 196.300781 226.542969 "/>
<path fill-rule="nonzero" fill="rgb(13.725281%, 12.156677%, 12.548828%)" fill-opacity="1" d="M 256.355469 222.695312 C 255.867188 222.695312 255.601562 222.5625 255.46875 222.25 C 255.339844 221.984375 255.25 221.589844 255.207031 221.101562 C 254.71875 221.191406 254.320312 221.367188 254.101562 221.632812 C 253.835938 221.941406 253.523438 222.382812 253.171875 222.960938 C 252.773438 223.535156 252.242188 224.066406 251.578125 224.460938 C 250.871094 224.90625 250.164062 225.214844 249.457031 225.347656 L 249.457031 225.4375 C 249.765625 225.480469 250.03125 225.613281 250.339844 225.789062 C 250.605469 226.011719 250.871094 226.230469 251.09375 226.496094 C 251.3125 226.761719 251.492188 227.027344 251.625 227.335938 C 251.753906 227.648438 251.800781 227.914062 251.800781 228.132812 C 251.800781 228.355469 251.753906 228.664062 251.667969 228.972656 C 251.535156 229.28125 251.445312 229.59375 251.3125 229.902344 C 251.179688 230.210938 251.09375 230.519531 251.003906 230.742188 C 250.871094 230.964844 250.828125 231.140625 250.828125 231.230469 C 250.828125 231.40625 250.914062 231.539062 251.046875 231.671875 C 251.179688 231.804688 251.3125 231.890625 251.492188 231.890625 C 251.800781 231.890625 252.199219 231.757812 252.640625 231.539062 C 253.039062 231.316406 253.480469 231.007812 253.921875 230.652344 C 254.320312 230.34375 254.71875 229.992188 255.074219 229.636719 C 255.425781 229.28125 255.691406 228.972656 255.914062 228.753906 C 256.53125 228.089844 257.019531 227.601562 257.328125 227.203125 C 257.636719 226.851562 257.902344 226.585938 258.078125 226.363281 C 258.210938 226.144531 258.34375 226.011719 258.390625 225.964844 C 258.433594 225.921875 258.476562 225.878906 258.523438 225.878906 C 258.699219 225.878906 258.789062 225.964844 258.789062 226.097656 C 258.789062 226.144531 258.742188 226.230469 258.609375 226.410156 C 258.476562 226.585938 258.300781 226.804688 258.078125 227.070312 C 257.859375 227.335938 257.59375 227.601562 257.328125 227.914062 C 257.0625 228.222656 256.796875 228.488281 256.53125 228.753906 C 256.132812 229.148438 255.734375 229.59375 255.292969 230.035156 C 254.808594 230.476562 254.363281 230.875 253.878906 231.230469 C 253.390625 231.582031 252.949219 231.847656 252.507812 232.070312 C 252.066406 232.289062 251.667969 232.421875 251.3125 232.421875 C 250.914062 232.421875 250.5625 232.289062 250.253906 232.070312 C 249.941406 231.847656 249.722656 231.582031 249.542969 231.230469 C 249.324219 230.917969 249.191406 230.566406 249.101562 230.167969 C 249.015625 229.769531 248.96875 229.414062 248.96875 229.105469 C 248.96875 228.441406 249.101562 227.914062 249.410156 227.46875 C 249.722656 227.070312 249.855469 226.671875 249.855469 226.320312 C 249.855469 226.144531 249.765625 225.964844 249.589844 225.832031 C 249.410156 225.699219 249.234375 225.613281 249.058594 225.613281 C 248.835938 225.613281 248.570312 225.699219 248.351562 225.921875 C 248.085938 226.144531 247.730469 226.230469 247.332031 226.230469 C 246.890625 226.230469 246.671875 226.054688 246.671875 225.699219 C 246.671875 225.566406 246.757812 225.390625 246.980469 225.214844 C 247.15625 225.082031 247.554688 224.992188 248.21875 224.992188 C 248.351562 224.992188 248.4375 224.992188 248.570312 225.039062 C 248.660156 225.082031 248.835938 225.082031 249.058594 225.082031 C 249.457031 225.082031 250.03125 224.816406 250.828125 224.242188 C 251.578125 223.667969 252.285156 223.003906 252.949219 222.164062 C 253.613281 221.324219 254.144531 220.792969 254.542969 220.527344 C 254.941406 220.261719 255.425781 220.128906 255.914062 220.128906 C 256.398438 220.128906 256.839844 220.261719 257.152344 220.484375 C 257.460938 220.746094 257.59375 221.101562 257.59375 221.5 C 257.59375 221.898438 257.460938 222.164062 257.238281 222.382812 C 256.972656 222.605469 256.664062 222.695312 256.355469 222.695312 Z M 242.203125 232.246094 L 239.195312 232.421875 L 246.273438 220.96875 L 246.183594 220.878906 C 246.007812 221.101562 245.785156 221.324219 245.566406 221.632812 C 245.300781 221.941406 245.035156 222.25 244.769531 222.5625 C 244.503906 222.914062 244.238281 223.222656 243.972656 223.535156 C 243.664062 223.84375 243.398438 224.152344 243.175781 224.417969 C 242.691406 224.949219 242.292969 225.390625 242.027344 225.699219 C 241.71875 226.011719 241.496094 226.277344 241.363281 226.453125 C 241.230469 226.628906 241.097656 226.71875 241.054688 226.761719 C 241.007812 226.804688 240.964844 226.851562 240.921875 226.851562 C 240.789062 226.851562 240.746094 226.761719 240.746094 226.585938 C 240.746094 226.542969 240.789062 226.453125 240.875 226.320312 C 240.921875 226.230469 241.097656 226.054688 241.363281 225.746094 C 241.585938 225.4375 241.984375 225.039062 242.46875 224.460938 C 242.957031 223.933594 243.664062 223.179688 244.503906 222.207031 C 245.609375 220.925781 246.539062 219.773438 247.289062 218.757812 C 248.042969 217.742188 248.75 216.679688 249.457031 215.53125 C 250.164062 214.378906 250.960938 213.054688 251.800781 211.59375 C 252.640625 210.132812 253.65625 208.277344 254.941406 206.066406 L 257.683594 205.800781 Z M 242.203125 232.246094 "/>
<path fill-rule="nonzero" fill="rgb(13.725281%, 12.156677%, 12.548828%)" fill-opacity="1" d="M 261.132812 226.144531 C 260.734375 226.761719 260.421875 227.292969 260.203125 227.691406 C 259.9375 228.132812 259.714844 228.53125 259.582031 228.839844 C 259.449219 229.195312 259.316406 229.503906 259.273438 229.8125 C 259.230469 230.125 259.1875 230.433594 259.1875 230.742188 C 259.1875 231.097656 259.273438 231.363281 259.496094 231.496094 C 259.714844 231.625 259.894531 231.714844 260.113281 231.714844 C 260.777344 231.714844 261.707031 231.230469 262.855469 230.257812 C 264.003906 229.238281 265.113281 228.308594 266.171875 227.46875 C 266.703125 227.027344 267.234375 226.496094 267.808594 225.921875 C 268.339844 225.347656 268.871094 224.773438 269.355469 224.109375 C 269.84375 223.445312 270.285156 222.828125 270.726562 222.164062 C 271.125 221.5 271.523438 220.878906 271.878906 220.304688 L 274.707031 220.128906 C 274.488281 220.4375 274.222656 220.925781 273.824219 221.5 C 273.425781 222.117188 272.9375 222.78125 272.453125 223.488281 C 271.964844 224.199219 271.4375 224.949219 270.949219 225.699219 C 270.417969 226.453125 269.933594 227.203125 269.535156 227.914062 C 269.089844 228.621094 268.738281 229.238281 268.472656 229.8125 C 268.164062 230.386719 268.03125 230.832031 268.03125 231.140625 C 268.03125 231.625 268.296875 231.890625 268.78125 231.890625 C 269.089844 231.890625 269.621094 231.671875 270.328125 231.183594 C 271.039062 230.699219 271.921875 229.945312 272.9375 228.839844 C 273.601562 228.175781 274.089844 227.601562 274.488281 227.203125 C 274.839844 226.804688 275.105469 226.542969 275.28125 226.320312 C 275.460938 226.144531 275.59375 226.011719 275.636719 225.964844 C 275.679688 225.921875 275.726562 225.878906 275.769531 225.878906 C 275.902344 225.878906 275.992188 225.964844 275.992188 226.097656 C 275.992188 226.144531 275.902344 226.277344 275.726562 226.496094 C 275.546875 226.71875 275.328125 226.9375 275.0625 227.25 C 274.796875 227.558594 274.53125 227.867188 274.222656 228.175781 C 273.910156 228.488281 273.601562 228.796875 273.382812 229.0625 C 272.277344 230.210938 271.347656 231.050781 270.59375 231.582031 C 269.84375 232.15625 269.136719 232.421875 268.5625 232.421875 C 268.164062 232.421875 267.808594 232.335938 267.589844 232.113281 C 267.367188 231.9375 267.191406 231.714844 267.058594 231.40625 C 266.925781 231.097656 266.835938 230.785156 266.792969 230.476562 C 266.746094 230.167969 266.703125 229.859375 266.703125 229.59375 C 266.703125 228.972656 266.792969 228.398438 267.011719 227.914062 L 266.925781 227.824219 C 266.613281 228.175781 266.21875 228.53125 265.730469 228.929688 C 265.246094 229.328125 264.667969 229.8125 264.003906 230.300781 C 263.34375 230.785156 262.679688 231.273438 262.015625 231.714844 C 261.351562 232.203125 260.6875 232.421875 260.027344 232.421875 C 259.1875 232.421875 258.609375 232.113281 258.210938 231.539062 C 257.8125 230.964844 257.59375 230.210938 257.59375 229.328125 C 257.59375 228.621094 257.683594 227.914062 257.859375 227.25 C 257.992188 226.585938 258.257812 226.011719 258.566406 225.523438 C 258.875 224.992188 259.316406 224.683594 259.804688 224.59375 C 260.289062 224.507812 260.601562 224.726562 260.777344 225.304688 Z M 261.132812 226.144531 "/>
<path fill-rule="nonzero" fill="rgb(13.725281%, 12.156677%, 12.548828%)" fill-opacity="1" d="M 277.449219 230.476562 C 277.449219 230.875 277.539062 231.230469 277.714844 231.496094 C 277.847656 231.757812 278.113281 231.890625 278.46875 231.890625 C 279.128906 231.890625 279.882812 231.539062 280.8125 230.832031 C 281.738281 230.167969 282.625 229.328125 283.464844 228.308594 C 284.304688 227.292969 285.054688 226.230469 285.675781 225.125 C 286.25 224.019531 286.558594 223.089844 286.558594 222.25 C 286.558594 221.808594 286.472656 221.410156 286.25 221.101562 C 286.03125 220.792969 285.675781 220.660156 285.1875 220.660156 C 284.304688 220.660156 283.417969 221.011719 282.492188 221.722656 C 281.5625 222.472656 280.722656 223.355469 279.96875 224.375 C 279.21875 225.390625 278.644531 226.496094 278.15625 227.601562 C 277.671875 228.707031 277.449219 229.679688 277.449219 230.476562 Z M 291.601562 220.351562 C 291.378906 220.570312 291.113281 220.96875 290.71875 221.542969 C 290.320312 222.117188 289.875 222.78125 289.390625 223.488281 C 288.902344 224.242188 288.417969 224.992188 287.929688 225.789062 C 287.445312 226.585938 287.003906 227.335938 286.605469 228.089844 C 286.207031 228.839844 285.851562 229.460938 285.632812 230.035156 C 285.367188 230.609375 285.234375 231.050781 285.234375 231.273438 C 285.234375 231.671875 285.5 231.890625 285.984375 231.890625 C 286.648438 231.890625 287.53125 231.363281 288.636719 230.34375 C 289.742188 229.328125 290.9375 228.089844 292.265625 226.585938 C 292.53125 226.277344 292.707031 226.054688 292.75 225.964844 C 292.796875 225.921875 292.882812 225.878906 292.929688 225.878906 C 293.105469 225.878906 293.195312 225.964844 293.195312 226.144531 C 293.195312 226.1875 293.105469 226.277344 292.972656 226.453125 C 292.839844 226.671875 292.617188 226.894531 292.398438 227.160156 C 292.132812 227.46875 291.867188 227.734375 291.601562 228.042969 C 291.292969 228.355469 291.027344 228.664062 290.761719 228.929688 C 289.742188 229.992188 288.816406 230.832031 287.976562 231.449219 C 287.136719 232.113281 286.425781 232.421875 285.851562 232.421875 C 285.277344 232.421875 284.789062 232.203125 284.4375 231.804688 C 284.082031 231.40625 283.90625 230.566406 283.90625 229.371094 C 283.90625 229.238281 283.90625 229.0625 283.949219 228.929688 C 283.949219 228.796875 283.949219 228.707031 283.949219 228.574219 C 283.640625 228.886719 283.242188 229.28125 282.800781 229.726562 C 282.316406 230.167969 281.828125 230.566406 281.339844 230.964844 C 280.855469 231.363281 280.324219 231.714844 279.839844 231.980469 C 279.351562 232.289062 278.863281 232.421875 278.46875 232.421875 C 277.890625 232.421875 277.40625 232.289062 277.050781 232.070312 C 276.699219 231.847656 276.433594 231.539062 276.210938 231.140625 C 275.992188 230.785156 275.859375 230.34375 275.8125 229.859375 C 275.726562 229.371094 275.679688 228.886719 275.679688 228.398438 C 275.679688 228.042969 275.726562 227.691406 275.769531 227.335938 C 275.8125 227.027344 275.859375 226.671875 275.902344 226.320312 C 275.859375 226.320312 275.8125 226.320312 275.769531 226.363281 C 275.726562 226.410156 275.679688 226.453125 275.636719 226.453125 C 275.503906 226.453125 275.460938 226.363281 275.460938 226.230469 C 275.460938 226.144531 275.503906 226.054688 275.59375 225.964844 C 275.679688 225.878906 275.859375 225.65625 276.167969 225.304688 C 276.742188 224.550781 277.40625 223.886719 278.15625 223.269531 C 278.863281 222.648438 279.617188 222.117188 280.414062 221.632812 C 281.207031 221.144531 282.003906 220.792969 282.84375 220.527344 C 283.640625 220.261719 284.4375 220.128906 285.1875 220.128906 C 285.851562 220.128906 286.339844 220.351562 286.648438 220.746094 C 286.957031 221.191406 287.089844 221.722656 287.089844 222.296875 C 287.089844 222.828125 287.046875 223.222656 286.957031 223.488281 L 287.046875 223.578125 C 287.445312 222.960938 287.753906 222.429688 287.976562 222.03125 C 288.195312 221.632812 288.375 221.324219 288.507812 221.058594 C 288.636719 220.835938 288.816406 220.660156 288.949219 220.570312 C 289.082031 220.484375 289.257812 220.4375 289.480469 220.4375 Z M 291.601562 220.351562 "/>
<path fill-rule="nonzero" fill="rgb(13.725281%, 12.156677%, 12.548828%)" fill-opacity="1" d="M 304.558594 222.296875 C 304.558594 222.695312 304.425781 223.136719 304.117188 223.535156 C 303.808594 223.976562 303.410156 224.199219 302.921875 224.199219 C 302.523438 224.199219 302.214844 224.066406 302.082031 223.84375 C 301.90625 223.621094 301.816406 223.402344 301.816406 223.089844 C 301.816406 222.78125 301.90625 222.605469 302.039062 222.472656 C 302.171875 222.339844 302.304688 222.25 302.480469 222.164062 C 302.65625 222.117188 302.835938 222.03125 302.96875 221.898438 C 303.101562 221.808594 303.144531 221.632812 303.144531 221.410156 C 303.144531 221.234375 303.054688 221.058594 302.921875 220.878906 C 302.746094 220.746094 302.480469 220.660156 302.125 220.660156 C 301.464844 220.660156 300.710938 220.925781 299.914062 221.410156 C 299.074219 221.941406 298.324219 222.648438 297.617188 223.488281 C 296.910156 224.375 296.332031 225.390625 295.847656 226.542969 C 295.359375 227.691406 295.09375 228.886719 295.09375 230.167969 C 295.09375 231.316406 295.714844 231.890625 296.953125 231.890625 C 297.703125 231.890625 298.632812 231.625 299.648438 231.050781 C 300.667969 230.519531 301.640625 229.726562 302.613281 228.707031 C 303.1875 228.089844 303.675781 227.601562 304.027344 227.203125 C 304.335938 226.804688 304.601562 226.542969 304.78125 226.320312 C 304.914062 226.144531 305.046875 226.011719 305.089844 225.921875 C 305.132812 225.878906 305.179688 225.832031 305.222656 225.832031 C 305.398438 225.832031 305.488281 225.921875 305.488281 226.097656 C 305.488281 226.144531 305.3125 226.363281 305 226.761719 C 304.648438 227.160156 304.25 227.648438 303.761719 228.132812 C 302.347656 229.679688 301.109375 230.742188 300.003906 231.40625 C 298.898438 232.070312 297.75 232.421875 296.644531 232.421875 C 295.980469 232.421875 295.40625 232.246094 294.960938 231.9375 C 294.476562 231.625 294.121094 231.273438 293.855469 230.785156 C 293.589844 230.300781 293.414062 229.769531 293.328125 229.195312 C 293.195312 228.621094 293.148438 228.089844 293.148438 227.558594 C 293.148438 227.203125 293.195312 226.9375 293.238281 226.71875 C 293.28125 226.542969 293.28125 226.410156 293.28125 226.363281 C 293.28125 226.320312 293.238281 226.277344 293.195312 226.277344 C 293.148438 226.277344 293.105469 226.320312 293.0625 226.363281 C 293.015625 226.410156 292.929688 226.453125 292.882812 226.453125 C 292.75 226.453125 292.664062 226.363281 292.664062 226.230469 C 292.664062 226.1875 292.664062 226.144531 292.707031 226.097656 C 292.75 226.054688 292.796875 225.964844 292.882812 225.832031 C 292.972656 225.699219 293.105469 225.523438 293.328125 225.304688 C 293.546875 225.082031 293.8125 224.726562 294.167969 224.328125 C 295.449219 222.828125 296.6875 221.765625 297.96875 221.101562 C 299.207031 220.4375 300.445312 220.128906 301.683594 220.128906 C 302.523438 220.128906 303.230469 220.304688 303.761719 220.660156 C 304.292969 221.058594 304.558594 221.589844 304.558594 222.296875 "/>
<path fill-rule="nonzero" fill="rgb(13.725281%, 12.156677%, 12.548828%)" fill-opacity="1" d="M 316.851562 222.296875 C 316.851562 222.695312 316.71875 223.136719 316.410156 223.535156 C 316.101562 223.976562 315.703125 224.199219 315.214844 224.199219 C 314.820312 224.199219 314.507812 224.066406 314.375 223.84375 C 314.199219 223.621094 314.109375 223.402344 314.109375 223.089844 C 314.109375 222.78125 314.199219 222.605469 314.332031 222.472656 C 314.464844 222.339844 314.597656 222.25 314.773438 222.164062 C 314.953125 222.117188 315.128906 222.03125 315.261719 221.898438 C 315.394531 221.808594 315.4375 221.632812 315.4375 221.410156 C 315.4375 221.234375 315.347656 221.058594 315.214844 220.878906 C 315.039062 220.746094 314.773438 220.660156 314.421875 220.660156 C 313.757812 220.660156 313.003906 220.925781 312.210938 221.410156 C 311.371094 221.941406 310.617188 222.648438 309.910156 223.488281 C 309.203125 224.375 308.628906 225.390625 308.140625 226.542969 C 307.65625 227.691406 307.390625 228.886719 307.390625 230.167969 C 307.390625 231.316406 308.007812 231.890625 309.246094 231.890625 C 310 231.890625 310.925781 231.625 311.945312 231.050781 C 312.960938 230.519531 313.933594 229.726562 314.90625 228.707031 C 315.480469 228.089844 315.96875 227.601562 316.324219 227.203125 C 316.632812 226.804688 316.898438 226.542969 317.074219 226.320312 C 317.207031 226.144531 317.339844 226.011719 317.382812 225.921875 C 317.429688 225.878906 317.472656 225.832031 317.515625 225.832031 C 317.691406 225.832031 317.78125 225.921875 317.78125 226.097656 C 317.78125 226.144531 317.605469 226.363281 317.296875 226.761719 C 316.941406 227.160156 316.542969 227.648438 316.058594 228.132812 C 314.640625 229.679688 313.402344 230.742188 312.296875 231.40625 C 311.191406 232.070312 310.042969 232.421875 308.9375 232.421875 C 308.273438 232.421875 307.699219 232.246094 307.257812 231.9375 C 306.769531 231.625 306.417969 231.273438 306.152344 230.785156 C 305.886719 230.300781 305.707031 229.769531 305.621094 229.195312 C 305.488281 228.621094 305.445312 228.089844 305.445312 227.558594 C 305.445312 227.203125 305.488281 226.9375 305.53125 226.71875 C 305.578125 226.542969 305.578125 226.410156 305.578125 226.363281 C 305.578125 226.320312 305.53125 226.277344 305.488281 226.277344 C 305.445312 226.277344 305.398438 226.320312 305.355469 226.363281 C 305.3125 226.410156 305.222656 226.453125 305.179688 226.453125 C 305.046875 226.453125 304.957031 226.363281 304.957031 226.230469 C 304.957031 226.1875 304.957031 226.144531 305 226.097656 C 305.046875 226.054688 305.089844 225.964844 305.179688 225.832031 C 305.265625 225.699219 305.398438 225.523438 305.621094 225.304688 C 305.839844 225.082031 306.105469 224.726562 306.460938 224.328125 C 307.742188 222.828125 308.980469 221.765625 310.265625 221.101562 C 311.503906 220.4375 312.742188 220.128906 313.980469 220.128906 C 314.820312 220.128906 315.527344 220.304688 316.058594 220.660156 C 316.585938 221.058594 316.851562 221.589844 316.851562 222.296875 "/>
<path fill-rule="nonzero" fill="rgb(13.725281%, 12.156677%, 12.548828%)" fill-opacity="1" d="M 159.019531 216.855469 C 159.019531 216.28125 159.285156 215.574219 159.859375 214.777344 C 160.433594 213.980469 161.054688 213.230469 161.761719 212.523438 C 162.46875 211.816406 163.175781 211.195312 163.839844 210.710938 C 164.503906 210.222656 164.902344 209.957031 165.078125 209.957031 C 165.210938 209.957031 165.300781 210.046875 165.300781 210.179688 C 165.300781 210.265625 165.253906 210.355469 165.167969 210.398438 C 165.078125 210.488281 164.855469 210.664062 164.546875 210.886719 C 163.707031 211.503906 163 212.125 162.511719 212.699219 C 161.980469 213.320312 161.714844 213.9375 161.671875 214.511719 C 161.628906 215.265625 161.585938 215.839844 161.539062 216.28125 C 161.453125 216.769531 161.363281 217.121094 161.230469 217.386719 C 161.097656 217.652344 160.921875 217.828125 160.699219 217.917969 C 160.476562 218.050781 160.257812 218.09375 159.949219 218.09375 C 159.636719 218.09375 159.371094 217.960938 159.238281 217.695312 C 159.109375 217.476562 159.019531 217.164062 159.019531 216.855469 Z M 152.472656 216.855469 C 152.472656 216.28125 152.738281 215.574219 153.3125 214.777344 C 153.890625 213.980469 154.507812 213.230469 155.214844 212.523438 C 155.921875 211.816406 156.632812 211.195312 157.292969 210.710938 C 157.957031 210.222656 158.355469 209.957031 158.53125 209.957031 C 158.664062 209.957031 158.753906 210.046875 158.753906 210.179688 C 158.753906 210.265625 158.710938 210.355469 158.621094 210.398438 C 158.53125 210.488281 158.3125 210.664062 158 210.886719 C 157.160156 211.503906 156.453125 212.125 155.96875 212.699219 C 155.4375 213.320312 155.171875 213.9375 155.128906 214.511719 C 155.082031 215.265625 155.039062 215.839844 154.996094 216.28125 C 154.90625 216.769531 154.816406 217.121094 154.683594 217.386719 C 154.550781 217.652344 154.375 217.828125 154.15625 217.917969 C 153.933594 218.050781 153.710938 218.09375 153.402344 218.09375 C 153.09375 218.09375 152.828125 217.960938 152.695312 217.695312 C 152.5625 217.476562 152.472656 217.164062 152.472656 216.855469 "/>
<path fill-rule="nonzero" fill="rgb(13.725281%, 12.156677%, 12.548828%)" fill-opacity="1" d="M 228.140625 211.195312 C 228.140625 211.769531 227.875 212.476562 227.300781 213.273438 C 226.726562 214.070312 226.105469 214.820312 225.398438 215.53125 C 224.691406 216.238281 224.027344 216.855469 223.363281 217.34375 C 222.699219 217.828125 222.257812 218.09375 222.082031 218.09375 C 221.949219 218.09375 221.859375 218.007812 221.859375 217.875 C 221.859375 217.785156 221.90625 217.695312 221.992188 217.609375 C 222.082031 217.5625 222.304688 217.386719 222.613281 217.164062 C 223.453125 216.546875 224.160156 215.925781 224.691406 215.308594 C 225.175781 214.734375 225.441406 214.113281 225.488281 213.539062 C 225.53125 212.078125 225.664062 211.152344 225.929688 210.664062 C 226.195312 210.179688 226.636719 209.957031 227.210938 209.957031 C 227.519531 209.957031 227.785156 210.089844 227.917969 210.3125 C 228.050781 210.578125 228.140625 210.886719 228.140625 211.195312 Z M 234.6875 211.195312 C 234.6875 211.769531 234.421875 212.476562 233.84375 213.273438 C 233.269531 214.070312 232.652344 214.820312 231.945312 215.53125 C 231.234375 216.238281 230.574219 216.855469 229.910156 217.34375 C 229.246094 217.828125 228.804688 218.09375 228.628906 218.09375 C 228.496094 218.09375 228.40625 218.007812 228.40625 217.875 C 228.40625 217.785156 228.449219 217.695312 228.539062 217.609375 C 228.628906 217.5625 228.847656 217.386719 229.15625 217.164062 C 229.996094 216.546875 230.707031 215.925781 231.234375 215.308594 C 231.722656 214.734375 231.988281 214.113281 232.03125 213.539062 C 232.078125 212.078125 232.210938 211.152344 232.472656 210.664062 C 232.738281 210.179688 233.183594 209.957031 233.757812 209.957031 C 234.066406 209.957031 234.332031 210.089844 234.464844 210.3125 C 234.597656 210.578125 234.6875 210.886719 234.6875 211.195312 "/>
<path fill-rule="nonzero" fill="rgb(13.725281%, 12.156677%, 12.548828%)" fill-opacity="1" d="M 85.109375 128.472656 C 89.3125 144.570312 93.386719 160.703125 97.5 176.824219 C 97.859375 178.234375 98.390625 179.355469 99.574219 180.417969 C 102.289062 182.859375 104.710938 185.636719 107.03125 188.046875 C 105.945312 192.167969 104.992188 195.914062 103.960938 199.636719 C 103.453125 201.464844 103.871094 203.050781 104.835938 204.855469 C 110.433594 197.671875 117.859375 193.527344 125.914062 190.394531 C 129.84375 188.863281 133.847656 187.414062 137.929688 186.386719 C 146.390625 184.257812 154.917969 182.40625 163.429688 180.496094 C 181.378906 176.464844 199.507812 173.945312 217.949219 174.789062 C 225.660156 175.140625 233.417969 175.664062 241.027344 176.894531 C 252.207031 178.699219 263.289062 181.160156 274.390625 183.4375 C 283.308594 185.269531 292.058594 187.722656 300.460938 191.292969 C 307.503906 194.28125 313.917969 198.175781 318.824219 204.222656 C 318.960938 204.394531 319.277344 204.421875 319.515625 204.519531 C 320.605469 201.363281 320.632812 201.355469 319.894531 198.5 C 319 195.035156 318.046875 191.582031 317.097656 188.054688 C 319.480469 185.558594 321.675781 182.890625 324.265625 180.695312 C 325.714844 179.46875 326.332031 178.117188 326.769531 176.453125 C 333.382812 151.222656 340.015625 126 346.625 100.769531 C 346.785156 100.164062 346.765625 99.507812 346.878906 98.355469 C 344.996094 100.085938 343.570312 101.433594 342.101562 102.734375 C 340.667969 104.007812 340.085938 105.484375 340.882812 107.316406 C 341.699219 109.1875 341.335938 110.945312 340.664062 112.78125 C 337.644531 121.070312 334.605469 129.355469 331.746094 137.699219 C 328.066406 148.421875 324.488281 159.179688 321.007812 169.964844 C 320.035156 172.972656 317.769531 174.421875 315.03125 176.40625 C 315.246094 175.375 315.324219 174.949219 315.429688 174.53125 C 317.160156 167.453125 318.757812 160.335938 320.664062 153.308594 C 324.695312 138.460938 329.023438 123.691406 332.925781 108.8125 C 333.832031 105.367188 335.417969 102.746094 338.03125 100.550781 C 338.375 100.261719 338.847656 100.050781 339.050781 99.6875 C 339.378906 99.085938 339.828125 98.328125 339.707031 97.746094 C 339.144531 95.046875 338.40625 92.382812 337.617188 89.277344 C 335.875 90.726562 334.5 91.851562 333.148438 93.003906 C 329.835938 95.828125 329.75 95.855469 330.859375 100.078125 C 331.5 102.515625 331.382812 104.714844 330.453125 107.09375 C 323.175781 125.707031 315.859375 144.304688 309.464844 163.246094 C 308.410156 166.359375 307.21875 169.425781 305.917969 172.996094 C 305.582031 172.023438 305.375 171.554688 305.257812 171.066406 C 304.101562 166.347656 303 161.617188 301.792969 156.914062 C 301.109375 154.234375 299.976562 153.859375 297.808594 155.550781 C 294.328125 158.257812 290.90625 161.039062 287.445312 163.777344 C 286.691406 164.378906 285.898438 164.925781 284.660156 165.839844 C 285.867188 157.636719 286.863281 149.992188 288.140625 142.398438 C 291.101562 124.765625 295.167969 107.324219 297.140625 89.523438 C 297.359375 87.582031 298.128906 85.980469 299.859375 84.84375 C 301.433594 83.804688 302.851562 82.53125 304.386719 81.429688 C 305.5 80.636719 305.875 79.816406 305.261719 78.453125 C 303.964844 75.585938 302.832031 72.640625 301.589844 69.746094 C 301.433594 69.375 301.039062 69.109375 300.585938 68.609375 C 297.464844 71.179688 294.441406 73.671875 291.417969 76.15625 C 292.621094 79.195312 293.757812 81.933594 294.769531 84.722656 C 295.050781 85.5 295.199219 86.488281 294.980469 87.257812 C 293.980469 90.804688 292.890625 94.332031 291.71875 97.828125 C 284.839844 118.296875 278.210938 138.839844 273.136719 159.851562 C 273.070312 160.132812 272.792969 160.367188 272.503906 160.773438 C 271.007812 157.464844 269.527344 154.382812 268.207031 151.230469 C 266.300781 146.683594 264.648438 147.5625 262.234375 150.0625 C 259.480469 152.917969 256.648438 155.695312 253.824219 158.480469 C 253.320312 158.976562 252.691406 159.339844 252.132812 159.757812 C 252.132812 158.089844 252.085938 156.753906 252.140625 155.417969 C 252.367188 149.9375 252.566406 144.453125 252.886719 138.976562 C 253.296875 131.984375 253.871094 125 254.273438 118.007812 C 254.558594 113.070312 254.75 108.125 254.847656 103.179688 C 255.027344 94.183594 255.445312 85.175781 254.488281 76.191406 C 254.363281 75.007812 254.699219 74.160156 255.722656 73.449219 C 257.335938 72.328125 258.84375 71.058594 260.457031 69.804688 C 258.679688 65.855469 257.949219 61.609375 255.054688 58.019531 C 253.523438 59.640625 252.089844 61.109375 250.714844 62.632812 C 249.34375 64.152344 248.039062 65.734375 246.675781 67.320312 C 248.074219 69.542969 249.335938 71.613281 250.667969 73.640625 C 251.507812 74.914062 251.710938 76.195312 251.46875 77.722656 C 249.898438 87.664062 248.242188 97.589844 246.953125 107.566406 C 245.101562 121.910156 243.554688 136.292969 241.851562 150.65625 C 241.554688 153.152344 241.148438 155.636719 240.789062 158.125 C 239.523438 157.171875 238.769531 156.183594 238.109375 155.132812 C 235.8125 151.46875 233.59375 147.757812 231.257812 144.121094 C 229.851562 141.9375 229.289062 141.890625 227.714844 143.976562 C 225.328125 147.132812 223.105469 150.417969 220.808594 153.640625 C 220.101562 154.628906 219.371094 155.59375 218.652344 156.570312 C 218.144531 155.550781 218.09375 154.695312 218.054688 153.839844 C 217.867188 149.4375 217.707031 145.03125 217.484375 140.632812 C 217.21875 135.425781 216.863281 130.226562 216.621094 125.023438 C 216.351562 119.179688 216.1875 113.335938 215.945312 107.492188 C 215.582031 98.867188 215.195312 90.242188 214.804688 81.617188 C 214.742188 80.277344 214.628906 78.933594 214.472656 77.597656 C 214.128906 74.683594 214.65625 72.144531 216.980469 70.042969 C 218.972656 68.246094 220.730469 66.183594 222.84375 63.972656 C 219.65625 59.746094 216.421875 55.4375 213.164062 51.148438 C 212.453125 50.214844 211.679688 50.230469 210.964844 51.175781 C 207.71875 55.472656 204.472656 59.769531 201.308594 63.957031 C 203.710938 66.480469 205.871094 68.761719 208.042969 71.035156 C 209.148438 72.191406 209.707031 73.480469 209.617188 75.160156 C 209.292969 81.269531 209.101562 87.390625 208.828125 93.503906 C 208.558594 99.523438 208.242188 105.542969 207.96875 111.5625 C 207.773438 115.878906 207.628906 120.195312 207.4375 124.511719 C 207.023438 133.859375 206.582031 143.207031 206.171875 152.554688 C 206.113281 153.863281 206.164062 155.175781 206.164062 156.484375 C 205.964844 156.5625 205.769531 156.636719 205.570312 156.710938 C 204.753906 155.585938 203.929688 154.464844 203.125 153.328125 C 200.988281 150.316406 198.890625 147.28125 196.714844 144.296875 C 196.167969 143.546875 195.394531 142.957031 194.5 142.074219 C 193.742188 143.058594 193.152344 143.710938 192.691406 144.441406 C 190.300781 148.257812 187.96875 152.113281 185.546875 155.910156 C 185.019531 156.730469 184.640625 157.828125 183.5 158.121094 C 183.3125 157.8125 183.164062 157.671875 183.148438 157.519531 C 181.847656 146.367188 180.589844 135.214844 179.257812 124.066406 C 178.460938 117.378906 177.621094 110.691406 176.671875 104.023438 C 175.441406 95.394531 174.105469 86.78125 172.761719 78.171875 C 172.46875 76.292969 172.710938 74.644531 173.820312 73.058594 C 175.101562 71.230469 176.226562 69.292969 177.476562 67.316406 C 174.691406 64.101562 172.109375 60.949219 168.992188 58.046875 C 166.21875 61.753906 165.367188 65.929688 163.707031 69.835938 C 165.332031 71.085938 166.789062 72.289062 168.332031 73.363281 C 169.347656 74.070312 169.6875 74.910156 169.570312 76.109375 C 169.34375 78.433594 169.035156 80.769531 169.054688 83.097656 C 169.132812 91.742188 169.328125 100.390625 169.484375 109.035156 C 169.511719 110.65625 169.519531 112.277344 169.621094 113.898438 C 170.066406 121.074219 170.554688 128.246094 171 135.421875 C 171.375 141.527344 171.738281 147.632812 172.050781 153.738281 C 172.148438 155.65625 172.066406 157.585938 172.066406 159.949219 C 170.878906 158.890625 169.988281 158.171875 169.175781 157.367188 C 166.554688 154.765625 163.929688 152.164062 161.363281 149.503906 C 159.007812 147.054688 157.320312 147.894531 156.304688 150.457031 C 155.171875 153.296875 153.820312 156.050781 152.542969 158.832031 C 152.261719 159.445312 151.898438 160.019531 151.402344 160.917969 C 151.078125 159.875 150.855469 159.222656 150.675781 158.558594 C 148.347656 150.050781 146.238281 141.480469 143.664062 133.054688 C 139.035156 117.90625 134.148438 102.835938 129.300781 87.753906 C 128.941406 86.628906 128.925781 85.746094 129.371094 84.679688 C 130.539062 81.878906 131.59375 79.035156 132.707031 76.175781 C 129.578125 73.523438 126.625 70.964844 123.074219 68.382812 C 121.484375 72.285156 120.046875 75.753906 118.664062 79.242188 C 118.304688 80.152344 118.886719 80.742188 119.585938 81.265625 C 121.03125 82.339844 122.363281 83.589844 123.894531 84.519531 C 126.242188 85.949219 126.84375 88.171875 127.195312 90.632812 C 128.164062 97.394531 129.054688 104.167969 130.195312 110.902344 C 132.890625 126.757812 135.730469 142.589844 138.464844 158.441406 C 138.847656 160.664062 138.976562 162.925781 139.28125 165.6875 C 138.355469 165.007812 137.925781 164.714844 137.515625 164.390625 C 133.777344 161.425781 130.066406 158.421875 126.296875 155.492188 C 124.195312 153.863281 123.128906 154.210938 122.4375 156.738281 C 121.488281 160.207031 120.632812 163.703125 119.757812 167.195312 C 119.3125 168.980469 118.917969 170.777344 118.382812 173.066406 C 117.90625 171.949219 117.59375 171.3125 117.363281 170.652344 C 110.21875 150.261719 102.894531 129.933594 94.753906 109.917969 C 93.140625 105.953125 92.105469 102.128906 93.773438 97.980469 C 93.839844 97.816406 93.90625 97.617188 93.875 97.453125 C 93.734375 96.699219 93.8125 95.691406 93.355469 95.25 C 91.320312 93.273438 89.125 91.460938 86.667969 89.3125 C 86.230469 90.742188 86.015625 91.785156 85.601562 92.746094 C 83.925781 96.648438 84.144531 99.976562 88.058594 102.523438 C 89.703125 103.589844 90.335938 105.367188 90.804688 107.292969 C 92.347656 113.671875 94.007812 120.027344 95.738281 126.359375 C 99.464844 139.980469 103.285156 153.574219 107.015625 167.195312 C 107.792969 170.023438 108.347656 172.914062 109.113281 176.261719 C 106.203125 174.417969 104.011719 172.816406 103.09375 169.769531 C 101.042969 162.957031 98.910156 156.167969 96.578125 149.449219 C 92.296875 137.121094 87.867188 124.847656 83.445312 112.566406 C 82.808594 110.796875 82.597656 109.136719 83.261719 107.332031 C 83.707031 106.132812 83.90625 104.753906 82.941406 103.742188 C 81.234375 101.957031 79.367188 100.316406 77.570312 98.617188 C 77.308594 99.738281 77.460938 100.582031 77.6875 101.40625 C 80.164062 110.429688 82.746094 119.421875 85.109375 128.472656 Z M 298.074219 165.488281 C 299.230469 168.710938 299.558594 171.640625 299.804688 174.566406 C 299.847656 175.078125 299.351562 175.714844 298.960938 176.175781 C 297.054688 178.429688 295.105469 180.644531 292.902344 183.183594 C 292.226562 179.058594 291.625 175.382812 290.984375 171.472656 C 293.203125 169.597656 295.5 167.660156 298.074219 165.488281 Z M 259.410156 162.484375 C 261.320312 161.015625 263.257812 159.582031 265.59375 157.824219 C 267.011719 160.832031 268.226562 163.40625 269.519531 166.144531 C 266.847656 168.816406 265.003906 172.105469 261.984375 174.691406 C 260.734375 171.125 259.636719 167.941406 258.503906 164.773438 C 258.121094 163.707031 258.671875 163.050781 259.410156 162.484375 Z M 225.039062 159.34375 C 226.648438 157.3125 228.417969 155.402344 230.144531 153.464844 C 230.234375 153.363281 230.484375 153.40625 231.054688 153.324219 C 232.324219 155.699219 233.714844 158.167969 234.683594 160.851562 C 234.835938 161.277344 234.699219 161.992188 234.417969 162.359375 C 232.691406 164.628906 230.878906 166.84375 228.75 169.507812 C 227.253906 166.386719 225.996094 163.90625 224.890625 161.359375 C 224.648438 160.796875 224.6875 159.792969 225.039062 159.34375 Z M 189.578125 160.476562 C 190.660156 158.042969 191.871094 155.664062 193.152344 153.035156 C 193.9375 153.554688 194.519531 153.796875 194.890625 154.21875 C 196.199219 155.707031 197.539062 157.183594 198.648438 158.808594 C 199.128906 159.515625 199.480469 160.742188 199.195312 161.449219 C 198.175781 164.007812 196.855469 166.445312 195.574219 169.082031 C 192.886719 167.226562 191.550781 164.507812 189.675781 162.273438 C 189.359375 161.898438 189.351562 160.980469 189.578125 160.476562 Z M 155.074219 165.457031 C 156.0625 162.992188 157.230469 160.601562 158.507812 157.816406 C 160.910156 159.621094 163.023438 161.09375 164.976562 162.753906 C 165.449219 163.15625 165.730469 164.265625 165.542969 164.875 C 164.574219 168.019531 163.425781 171.109375 162.144531 174.789062 C 161.285156 173.914062 160.648438 173.335938 160.09375 172.6875 C 158.582031 170.917969 157.058594 169.152344 155.636719 167.316406 C 155.253906 166.824219 154.882812 165.9375 155.074219 165.457031 Z M 124.445312 172.835938 C 125.019531 170.613281 125.269531 168.304688 125.738281 165.578125 C 128.789062 167.320312 130.773438 169.613281 133.183594 171.460938 C 132.527344 175.351562 131.921875 178.949219 131.28125 182.761719 C 130.90625 182.496094 130.464844 182.289062 130.171875 181.957031 C 128.625 180.210938 127.15625 178.398438 125.582031 176.683594 C 124.542969 175.554688 124.019531 174.46875 124.445312 172.835938 "/>
<path fill-rule="nonzero" fill="rgb(13.725281%, 12.156677%, 12.548828%)" fill-opacity="1" d="M 307.636719 196.195312 C 303.257812 193.921875 298.734375 191.871094 294.128906 190.105469 C 285.113281 186.644531 275.644531 184.8125 266.230469 182.789062 C 251.449219 179.613281 236.652344 176.648438 221.480469 175.992188 C 208.671875 175.4375 195.894531 175.789062 183.273438 177.96875 C 170.867188 180.113281 158.535156 182.703125 146.226562 185.375 C 136.890625 187.402344 127.769531 190.230469 119.21875 194.621094 C 114.121094 197.246094 109.625 200.644531 106.035156 205.175781 C 105.082031 206.378906 104.714844 207.511719 105.964844 208.890625 C 106.382812 208.742188 106.65625 208.6875 106.882812 208.554688 C 107.105469 208.421875 107.335938 208.238281 107.46875 208.023438 C 109.535156 204.683594 112.617188 202.492188 115.992188 200.730469 C 119.496094 198.898438 123.03125 197.070312 126.703125 195.621094 C 147.042969 187.585938 168.367188 184.660156 190.042969 183.625 C 195.527344 183.363281 201.011719 183.144531 206.492188 182.890625 C 208.636719 182.792969 210.785156 182.527344 212.925781 182.5625 C 215.257812 182.597656 217.582031 182.945312 219.914062 183.070312 C 228.898438 183.558594 237.894531 183.851562 246.863281 184.519531 C 258.277344 185.367188 269.550781 187.222656 280.632812 190.136719 C 289.09375 192.363281 297.386719 195.066406 305.191406 199.09375 C 309.601562 201.367188 313.980469 203.695312 316.742188 208.121094 C 317.007812 208.542969 317.765625 208.65625 318.289062 208.910156 C 319.324219 207.417969 318.976562 206.277344 318.035156 205.097656 C 315.132812 201.464844 311.738281 198.332031 307.636719 196.195312 "/>
<path fill-rule="nonzero" fill="rgb(13.725281%, 12.156677%, 12.548828%)" fill-opacity="1" d="M 325.320312 181.285156 C 323.265625 183.386719 321.175781 185.449219 319.195312 187.613281 C 318.859375 187.976562 318.839844 188.78125 318.917969 189.34375 C 319.074219 190.40625 319.410156 191.441406 319.664062 192.488281 C 320.207031 194.722656 320.746094 196.960938 321.355469 199.472656 C 322.089844 198.976562 322.589844 198.765625 322.902344 198.398438 C 324.480469 196.554688 326.039062 194.699219 327.519531 192.78125 C 327.859375 192.339844 328.074219 191.597656 327.980469 191.058594 C 327.417969 187.902344 326.746094 184.765625 326.113281 181.621094 C 325.847656 181.511719 325.582031 181.398438 325.320312 181.285156 "/>
<path fill-rule="nonzero" fill="rgb(13.725281%, 12.156677%, 12.548828%)" fill-opacity="1" d="M 98.148438 181.3125 C 97.402344 184.738281 96.664062 187.878906 96.082031 191.046875 C 95.980469 191.621094 96.402344 192.40625 96.796875 192.929688 C 97.988281 194.503906 99.269531 196.011719 100.546875 197.523438 C 101.097656 198.167969 101.722656 198.75 102.726562 199.792969 C 103.75 195.5 104.632812 191.789062 105.53125 188.011719 C 102.875 186.019531 101.457031 182.875 98.148438 181.3125 "/>
<path fill-rule="nonzero" fill="rgb(13.725281%, 12.156677%, 12.548828%)" fill-opacity="1" d="M 267.632812 166.496094 C 267.894531 166.160156 267.925781 165.429688 267.75 165.015625 C 266.984375 163.238281 266.105469 161.507812 265.152344 159.519531 C 263.125 161.054688 261.367188 162.386719 259.417969 163.859375 C 260.492188 166.867188 261.472656 169.609375 262.5625 172.660156 C 264.394531 170.453125 266.0625 168.511719 267.632812 166.496094 "/>
<path fill-rule="nonzero" fill="rgb(13.725281%, 12.156677%, 12.548828%)" fill-opacity="1" d="M 132.03125 171.984375 C 130.15625 170.648438 128.863281 168.640625 126.417969 167.75 C 126.023438 170.246094 125.664062 172.515625 125.3125 174.765625 C 126.984375 176.609375 128.59375 178.378906 130.402344 180.367188 C 130.976562 177.414062 131.496094 174.742188 132.03125 171.984375 "/>
<path fill-rule="nonzero" fill="rgb(13.725281%, 12.156677%, 12.548828%)" fill-opacity="1" d="M 164.703125 163.859375 C 162.851562 162.457031 161.019531 161.074219 158.929688 159.492188 C 157.851562 161.871094 156.910156 163.945312 156.007812 165.929688 C 157.949219 168.28125 159.699219 170.398438 161.601562 172.707031 C 162.6875 169.613281 163.65625 166.84375 164.703125 163.859375 "/>
<path fill-rule="nonzero" fill="rgb(13.725281%, 12.156677%, 12.548828%)" fill-opacity="1" d="M 298.351562 175.292969 C 298.644531 174.953125 298.730469 174.289062 298.664062 173.808594 C 298.390625 171.78125 298.019531 169.769531 297.609375 167.296875 C 295.78125 168.859375 294.441406 170.042969 293.054688 171.167969 C 292.347656 171.746094 292.125 172.382812 292.316406 173.28125 C 292.792969 175.523438 293.199219 177.785156 293.695312 180.347656 C 295.375 178.542969 296.910156 176.960938 298.351562 175.292969 "/>
<path fill-rule="nonzero" fill="rgb(13.725281%, 12.156677%, 12.548828%)" fill-opacity="1" d="M 195.144531 167.535156 C 196.433594 164.773438 197.480469 162.523438 198.511719 160.324219 C 196.859375 158.355469 195.386719 156.59375 193.640625 154.511719 C 192.539062 156.78125 191.574219 158.671875 190.726562 160.609375 C 190.554688 161 190.683594 161.703125 190.945312 162.0625 C 192.195312 163.796875 193.535156 165.460938 195.144531 167.535156 "/>
<path fill-rule="nonzero" fill="rgb(13.725281%, 12.156677%, 12.548828%)" fill-opacity="1" d="M 233.757812 161.421875 C 232.8125 159.089844 231.867188 156.859375 230.34375 154.671875 C 228.636719 156.730469 227.160156 158.503906 225.613281 160.363281 C 226.714844 162.652344 227.78125 164.871094 229.039062 167.488281 C 230.785156 165.242188 232.25 163.363281 233.757812 161.421875 "/>
</svg>
